<svg width="1219" height="739" viewBox="0 0 1219 739" fill="none" xmlns="http://www.w3.org/2000/svg">
<path d="M72.5877 -121H0.999512L0.999512 -49.4167M72.5877 -121V-49.4167M72.5877 -121L144.176 -121M72.5877 -49.4167H0.999512M72.5877 -49.4167L144.176 -49.4167M72.5877 -49.4167L72.5877 22.1667M0.999512 -49.4167L0.999512 22.1667M144.176 -121V-49.4167M144.176 -121H215.764M144.176 -49.4167H215.764M144.176 -49.4167V22.1667M215.764 -121V-49.4167M215.764 -121H287.352M215.764 -49.4167H287.352M215.764 -49.4167V22.1667M287.352 -121V-49.4167M287.352 -121H358.941M287.352 -49.4167H358.941M287.352 -49.4167V22.1667M358.941 -121V-49.4167M358.941 -121L430.529 -121M358.941 -49.4167L430.529 -49.4167M358.941 -49.4167V22.1667M430.529 -121V-49.4167M430.529 -121H502.117M430.529 -49.4167H502.117M430.529 -49.4167V22.1667M502.117 -121V-49.4167M502.117 -121H573.705M502.117 -49.4167H573.705M502.117 -49.4167V22.1667M573.705 -121V-49.4167M573.705 -121L645.294 -121M573.705 -49.4167L645.294 -49.4167M573.705 -49.4167V22.1667M645.294 -121V-49.4167M645.294 -121H716.882M645.294 -49.4167H716.882M645.294 -49.4167V22.1667M716.882 -121V-49.4167M716.882 -121H788.47M716.882 -49.4167H788.47M716.882 -49.4167V22.1667M788.47 -121V-49.4167M788.47 -121H860.058M788.47 -49.4167H860.058M788.47 -49.4167V22.1667M860.058 -121V-49.4167M860.058 -121L931.647 -121M860.058 -49.4167L931.647 -49.4167M860.058 -49.4167V22.1667M931.647 -121V-49.4167M931.647 -121H1003.23M931.647 -49.4167H1003.23M931.647 -49.4167V22.1667M1003.23 -121V-49.4167M1003.23 -121H1074.82M1003.23 -49.4167H1074.82M1003.23 -49.4167V22.1667M1074.82 -121V-49.4167M1074.82 -121H1146.41M1074.82 -49.4167H1146.41M1074.82 -49.4167V22.1667M1146.41 -121V-49.4167M1146.41 -121L1218 -121V-49.4167M1146.41 -49.4167L1218 -49.4167M1146.41 -49.4167V22.1667M1218 -49.4167V22.1667M72.5877 22.1667H0.999512M72.5877 22.1667H144.176M72.5877 22.1667V93.75M0.999512 22.1667L0.999512 93.75M144.176 22.1667H215.764M144.176 22.1667V93.75M215.764 22.1667L287.352 22.1667M215.764 22.1667V93.75M287.352 22.1667H358.941M287.352 22.1667V93.75M358.941 22.1667H430.529M358.941 22.1667V93.75M430.529 22.1667H502.117M430.529 22.1667V93.75M502.117 22.1667H573.705M502.117 22.1667V93.75M573.705 22.1667H645.294M573.705 22.1667V93.75M645.294 22.1667H716.882M645.294 22.1667V93.75M716.882 22.1667L788.47 22.1667M716.882 22.1667V93.75M788.47 22.1667H860.058M788.47 22.1667V93.75M860.058 22.1667H931.647M860.058 22.1667V93.75M931.647 22.1667H1003.23M931.647 22.1667V93.75M1003.23 22.1667H1074.82M1003.23 22.1667V93.75M1074.82 22.1667H1146.41M1074.82 22.1667V93.75M1146.41 22.1667H1218M1146.41 22.1667V93.75M1218 22.1667V93.75M72.5877 93.75H0.999512M72.5877 93.75H144.176M72.5877 93.75V165.333M0.999512 93.75L0.999512 165.333M144.176 93.75H215.764M144.176 93.75L144.176 165.333M215.764 93.75L287.352 93.75M215.764 93.75L215.764 165.333M287.352 93.75H358.941M287.352 93.75V165.333M358.941 93.75H430.529M358.941 93.75V165.333M430.529 93.75H502.117M430.529 93.75V165.333M502.117 93.75H573.705M502.117 93.75V165.333M573.705 93.75H645.294M573.705 93.75V165.333M645.294 93.75H716.882M645.294 93.75V165.333M716.882 93.75L788.47 93.75M716.882 93.75V165.333M788.47 93.75H860.058M788.47 93.75V165.333M860.058 93.75H931.647M860.058 93.75V165.333M931.647 93.75H1003.23M931.647 93.75V165.333M1003.23 93.75H1074.82M1003.23 93.75V165.333M1074.82 93.75H1146.41M1074.82 93.75V165.333M1146.41 93.75H1218M1146.41 93.75V165.333M1218 93.75V165.333M72.5877 165.333H0.999512M72.5877 165.333H144.176M72.5877 165.333V236.917M0.999512 165.333L0.999512 236.917M144.176 165.333H215.764M144.176 165.333V236.917M215.764 165.333H287.352M215.764 165.333V236.917M287.352 165.333H358.941M287.352 165.333V236.917M358.941 165.333H430.529M358.941 165.333V236.917M430.529 165.333H502.117M430.529 165.333V236.917M502.117 165.333L573.705 165.333M502.117 165.333V236.917M573.705 165.333H645.294M573.705 165.333V236.917M645.294 165.333H716.882M645.294 165.333V236.917M716.882 165.333H788.47M716.882 165.333V236.917M788.47 165.333H860.058M788.47 165.333V236.917M860.058 165.333H931.647M860.058 165.333V236.917M931.647 165.333H1003.23M931.647 165.333V236.917M1003.23 165.333H1074.82M1003.23 165.333V236.917M1074.82 165.333H1146.41M1074.82 165.333V236.917M1146.41 165.333H1218M1146.41 165.333V236.917M1218 165.333V236.917M72.5877 236.917H0.999512M72.5877 236.917H144.176M72.5877 236.917L72.5877 308.5M0.999512 236.917L0.999512 308.5M144.176 236.917H215.764M144.176 236.917V308.5M215.764 236.917H287.352M215.764 236.917V308.5M287.352 236.917H358.941M287.352 236.917V308.5M358.941 236.917H430.529M358.941 236.917V308.5M430.529 236.917H502.117M430.529 236.917V308.5M502.117 236.917L573.705 236.917M502.117 236.917V308.5M573.705 236.917H645.294M573.705 236.917V308.5M645.294 236.917H716.882M645.294 236.917V308.5M716.882 236.917H788.47M716.882 236.917V308.5M788.47 236.917H860.058M788.47 236.917V308.5M860.058 236.917H931.647M860.058 236.917V308.5M931.647 236.917H1003.23M931.647 236.917V308.5M1003.23 236.917H1074.82M1003.23 236.917V308.5M1074.82 236.917H1146.41M1074.82 236.917V308.5M1146.41 236.917H1218M1146.41 236.917V308.5M1218 236.917V308.5M72.5877 308.5H0.999512M72.5877 308.5H144.176M72.5877 308.5V380.083M0.999512 308.5L0.999512 380.083M144.176 308.5H215.764M144.176 308.5V380.083M215.764 308.5H287.352M215.764 308.5V380.083M287.352 308.5H358.941M287.352 308.5V380.083M358.941 308.5H430.529M358.941 308.5V380.083M430.529 308.5H502.117M430.529 308.5V380.083M502.117 308.5L573.705 308.5M502.117 308.5V380.083M573.705 308.5H645.294M573.705 308.5V380.083M645.294 308.5H716.882M645.294 308.5V380.083M716.882 308.5H788.47M716.882 308.5V380.083M788.47 308.5H860.058M788.47 308.5V380.083M860.058 308.5H931.647M860.058 308.5V380.083M931.647 308.5H1003.23M931.647 308.5V380.083M1003.23 308.5H1074.82M1003.23 308.5V380.083M1074.82 308.5H1146.41M1074.82 308.5V380.083M1146.41 308.5H1218M1146.41 308.5V380.083M1218 308.5V380.083M72.5877 380.083H0.999512M72.5877 380.083H144.176M72.5877 380.083V451.667M0.999512 380.083L0.999512 451.667M144.176 380.083H215.764M144.176 380.083V451.667M215.764 380.083H287.352M215.764 380.083V451.667M287.352 380.083H358.941M287.352 380.083L287.352 451.667M358.941 380.083H430.529M358.941 380.083L358.941 451.667M430.529 380.083H502.117M430.529 380.083L430.529 451.667M502.117 380.083L573.705 380.083M502.117 380.083L502.117 451.667M573.705 380.083H645.294M573.705 380.083V451.667M645.294 380.083H716.882M645.294 380.083V451.667M716.882 380.083H788.47M716.882 380.083V451.667M788.47 380.083H860.058M788.47 380.083V451.667M860.058 380.083H931.647M860.058 380.083V451.667M931.647 380.083H1003.23M931.647 380.083V451.667M1003.23 380.083H1074.82M1003.23 380.083V451.667M1074.82 380.083H1146.41M1074.82 380.083V451.667M1146.41 380.083H1218M1146.41 380.083V451.667M1218 380.083V451.667M72.5877 451.667H0.999512M72.5877 451.667H144.176M72.5877 451.667L72.5877 523.25M0.999512 451.667L0.999512 523.25M144.176 451.667H215.764M144.176 451.667V523.25M215.764 451.667H287.352M215.764 451.667V523.25M287.352 451.667H358.941M287.352 451.667V523.25M358.941 451.667H430.529M358.941 451.667V523.25M430.529 451.667H502.117M430.529 451.667V523.25M502.117 451.667H573.705M502.117 451.667V523.25M573.705 451.667H645.294M573.705 451.667V523.25M645.294 451.667H716.882M645.294 451.667V523.25M716.882 451.667H788.47M716.882 451.667V523.25M788.47 451.667H860.058M788.47 451.667V523.25M860.058 451.667H931.647M860.058 451.667V523.25M931.647 451.667H1003.23M931.647 451.667V523.25M1003.23 451.667L1074.82 451.667M1003.23 451.667V523.25M1074.82 451.667H1146.41M1074.82 451.667V523.25M1146.41 451.667H1218M1146.41 451.667V523.25M1218 451.667V523.25M72.5877 523.25H0.999512M72.5877 523.25H144.176M72.5877 523.25V594.833M0.999512 523.25L0.999512 594.833M144.176 523.25H215.764M144.176 523.25V594.833M215.764 523.25H287.352M215.764 523.25V594.833M287.352 523.25H358.941M287.352 523.25V594.833M358.941 523.25H430.529M358.941 523.25V594.833M430.529 523.25H502.117M430.529 523.25V594.833M502.117 523.25H573.705M502.117 523.25V594.833M573.705 523.25H645.294M573.705 523.25V594.833M645.294 523.25H716.882M645.294 523.25V594.833M716.882 523.25H788.47M716.882 523.25V594.833M788.47 523.25H860.058M788.47 523.25V594.833M860.058 523.25H931.647M860.058 523.25V594.833M931.647 523.25H1003.23M931.647 523.25V594.833M1003.23 523.25L1074.82 523.25M1003.23 523.25V594.833M1074.82 523.25H1146.41M1074.82 523.25V594.833M1146.41 523.25H1218M1146.41 523.25V594.833M1218 523.25V594.833M72.5877 594.833H0.999512M72.5877 594.833H144.176M72.5877 594.833V666.417M0.999512 594.833L0.999512 666.417M144.176 594.833H215.764M144.176 594.833L144.176 666.417M215.764 594.833H287.352M215.764 594.833L215.764 666.417M287.352 594.833H358.941M287.352 594.833V666.417M358.941 594.833H430.529M358.941 594.833V666.417M430.529 594.833H502.117M430.529 594.833V666.417M502.117 594.833H573.705M502.117 594.833V666.417M573.705 594.833H645.294M573.705 594.833V666.417M645.294 594.833H716.882M645.294 594.833V666.417M716.882 594.833H788.47M716.882 594.833V666.417M788.47 594.833H860.058M788.47 594.833V666.417M860.058 594.833H931.647M860.058 594.833V666.417M931.647 594.833H1003.23M931.647 594.833V666.417M1003.23 594.833L1074.82 594.833M1003.23 594.833V666.417M1074.82 594.833H1146.41M1074.82 594.833V666.417M1146.41 594.833H1218M1146.41 594.833V666.417M1218 594.833V666.417M72.5877 666.417H0.999512M72.5877 666.417H144.176M72.5877 666.417V738M0.999512 666.417L0.999512 738H72.5877M144.176 666.417H215.764M144.176 666.417V738M215.764 666.417H287.352M215.764 666.417V738M287.352 666.417H358.941M287.352 666.417V738M358.941 666.417H430.529M358.941 666.417V738M430.529 666.417H502.117M430.529 666.417V738M502.117 666.417H573.705M502.117 666.417V738M573.705 666.417H645.294M573.705 666.417V738M645.294 666.417H716.882M645.294 666.417V738M716.882 666.417H788.47M716.882 666.417V738M788.47 666.417H860.058M788.47 666.417V738M860.058 666.417H931.647M860.058 666.417V738M931.647 666.417H1003.23M931.647 666.417V738M1003.23 666.417L1074.82 666.417M1003.23 666.417V738M1074.82 666.417H1146.41M1074.82 666.417V738M1146.41 666.417H1218M1146.41 666.417V738M1218 666.417V738H1146.41M72.5877 738H144.176M144.176 738H215.764M215.764 738H287.352M287.352 738H358.941M358.941 738H430.529M430.529 738H502.117M502.117 738H573.705M573.705 738H645.294M645.294 738H716.882M716.882 738H788.47M788.47 738H860.058M860.058 738H931.647M931.647 738H1003.23M1003.23 738L1074.82 738M1074.82 738H1146.41" stroke="url(#paint0_radial_1_38)" stroke-opacity="0.03" stroke-width="2"/>
<defs>
<radialGradient id="paint0_radial_1_38" cx="0" cy="0" r="1" gradientUnits="userSpaceOnUse" gradientTransform="translate(609.5 331.443) rotate(90) scale(405.639 609.418)">
<stop stop-color="white"/>
<stop offset="1" stop-color="white" stop-opacity="0"/>
</radialGradient>
</defs>
</svg>
