<svg width="574" height="54" viewBox="0 0 574 54" fill="none" xmlns="http://www.w3.org/2000/svg">
<mask id="path-1-inside-1_1_289" fill="white">
<path d="M25.0107 54C20.1981 54 15.896 52.9383 12.1043 50.815C8.3612 48.6917 5.39589 45.6515 3.20837 41.6944C1.06946 37.689 0 32.8633 0 27.2172C0 21.8123 1.02084 17.1072 3.06253 13.1019C5.10422 9.04826 8.02092 5.91153 11.8126 3.69169C15.6043 1.42359 20.1009 0.289545 25.3024 0.289545C32.3997 0.289545 37.9171 2.00268 41.8546 5.42895C45.8408 8.85523 48.3929 13.8499 49.511 20.4129L34.7087 20.9196C34.2226 17.9759 33.1531 15.7078 31.5003 14.1153C29.8475 12.4745 27.7816 11.6542 25.3024 11.6542C22.9204 11.6542 20.9273 12.3298 19.3231 13.681C17.7676 14.9839 16.6009 16.8177 15.8231 19.1823C15.0453 21.4987 14.6564 24.1769 14.6564 27.2172C14.6564 30.3539 15.0696 33.0804 15.896 35.3968C16.7224 37.7131 17.9134 39.4987 19.469 40.7533C21.0731 42.008 22.969 42.6354 25.1565 42.6354C27.976 42.6354 30.1635 41.7909 31.7191 40.1019C33.2747 38.3646 34.2712 35.9276 34.7087 32.7909L49.5839 33.2976C48.8547 37.7855 47.445 41.5737 45.3547 44.6622C43.2644 47.7024 40.5178 50.0188 37.115 51.6113C33.7608 53.2038 29.726 54 25.0107 54Z"/>
<path d="M67.8252 53.7105C63.6932 53.7105 60.2904 52.7694 57.6168 50.8874C54.9431 49.0054 53.6063 46.3753 53.6063 42.9973C53.6063 39.5228 54.7487 36.8686 57.0334 35.0349C59.3668 33.1528 62.6724 31.7533 66.9502 30.8365L78.7628 28.3753C78.7628 26.3485 78.3253 24.8043 77.4503 23.7426C76.5753 22.681 75.36 22.1501 73.8044 22.1501C72.1516 22.1501 70.8634 22.5603 69.9398 23.3807C69.0648 24.1528 68.5058 25.311 68.2627 26.8552L54.2626 26.4209C55.0403 21.6917 57.1063 18.2654 60.4605 16.1421C63.8147 13.9705 68.2627 12.8847 73.8044 12.8847C80.2212 12.8847 85.0094 14.2601 88.1692 17.0107C91.3289 19.7614 92.9088 23.9357 92.9088 29.5335V40.9705C92.9088 42.2252 93.1033 43.0456 93.4921 43.4316C93.9296 43.8177 94.513 44.0107 95.2422 44.0107H96.0443V52.8418C95.6068 52.9866 94.9019 53.1072 93.9296 53.2038C92.9574 53.3485 92.0095 53.4209 91.0859 53.4209C89.6761 53.4209 88.2178 53.1796 86.7108 52.697C85.2039 52.2145 83.94 51.2976 82.9191 49.9464C81.8983 48.5469 81.3878 46.5201 81.3878 43.866L82.4087 45.0241C81.874 46.8097 80.999 48.3539 79.7837 49.6568C78.5684 50.9598 76.9642 51.9732 74.9711 52.697C73.0266 53.3727 70.6447 53.7105 67.8252 53.7105ZM71.7627 44.8794C73.0753 44.8794 74.2419 44.6139 75.2628 44.0831C76.3322 43.5523 77.1829 42.756 77.8149 41.6944C78.4468 40.5844 78.7628 39.185 78.7628 37.496V36.193L72.3461 37.7855C71.1308 38.0751 70.1099 38.5576 69.2836 39.2332C68.5058 39.8606 68.1169 40.681 68.1169 41.6944C68.1169 42.7078 68.4085 43.504 68.9919 44.0831C69.5752 44.6139 70.4988 44.8794 71.7627 44.8794Z"/>
<path d="M100.93 52.8418V13.7534H113.617L114.055 22.874L113.034 22.2949C113.569 20.2681 114.371 18.555 115.44 17.1555C116.558 15.756 117.871 14.6944 119.378 13.9705C120.933 13.2466 122.611 12.8847 124.409 12.8847C127.618 12.8847 130.194 13.8499 132.138 15.7802C134.083 17.6622 135.347 20.1716 135.93 23.3083L134.472 23.4531C134.958 21.1367 135.76 19.2064 136.878 17.6622C137.996 16.0697 139.333 14.8874 140.888 14.1153C142.493 13.2949 144.243 12.8847 146.139 12.8847C148.764 12.8847 151.073 13.4397 153.066 14.5496C155.059 15.6595 156.614 17.3244 157.732 19.5442C158.899 21.7158 159.482 24.4424 159.482 27.7239V52.8418H145.336V31.8499C145.336 29.0992 144.996 27.0483 144.316 25.697C143.684 24.3458 142.541 23.6702 140.888 23.6702C139.868 23.6702 139.017 23.9839 138.336 24.6113C137.704 25.2386 137.218 26.1796 136.878 27.4343C136.538 28.6408 136.368 30.1126 136.368 31.8499V52.8418H123.972V31.8499C123.972 29.0992 123.656 27.0483 123.024 25.697C122.392 24.3458 121.249 23.6702 119.597 23.6702C118.576 23.6702 117.725 23.9839 117.044 24.6113C116.413 25.2386 115.926 26.1796 115.586 27.4343C115.246 28.6408 115.076 30.1126 115.076 31.8499V52.8418H100.93Z"/>
<path d="M167.082 52.8418V13.7534H181.228V52.8418H167.082ZM166.864 9.8445V0H181.447V9.8445H166.864Z"/>
<path d="M201.187 52.8418C197.395 52.8418 194.454 51.9008 192.364 50.0188C190.273 48.1367 189.228 45.0724 189.228 40.8257V1.44772H203.374V39.2332C203.374 40.5844 203.69 41.5496 204.322 42.1287C204.954 42.6595 205.853 42.9249 207.02 42.9249H209.135V52.8418H201.187Z"/>
<path d="M232.91 53.7105C228.632 53.7105 224.889 52.866 221.68 51.1769C218.521 49.4879 216.042 47.1233 214.243 44.0831C212.493 40.9946 211.618 37.3995 211.618 33.2976C211.618 29.1957 212.493 25.6247 214.243 22.5844C216.042 19.5442 218.521 17.1796 221.68 15.4906C224.889 13.7533 228.632 12.8847 232.91 12.8847C237.188 12.8847 240.906 13.7533 244.066 15.4906C247.275 17.1796 249.754 19.5442 251.504 22.5844C253.302 25.6247 254.202 29.1957 254.202 33.2976C254.202 37.3995 253.302 40.9946 251.504 44.0831C249.754 47.1233 247.275 49.4879 244.066 51.1769C240.906 52.866 237.188 53.7105 232.91 53.7105ZM232.91 43.6488C235.097 43.6488 236.774 42.756 237.941 40.9705C239.108 39.185 239.691 36.6273 239.691 33.2976C239.691 30.0161 239.108 27.4826 237.941 25.697C236.774 23.8633 235.097 22.9464 232.91 22.9464C230.722 22.9464 229.045 23.8633 227.878 25.697C226.712 27.4826 226.128 30.0161 226.128 33.2976C226.128 36.6273 226.712 39.185 227.878 40.9705C229.045 42.756 230.722 43.6488 232.91 43.6488Z"/>
<path d="M276.682 52.8418V1.44772H298.412C305.023 1.44772 310.127 2.58177 313.725 4.84986C317.37 7.0697 319.193 10.6166 319.193 15.4906C319.193 17.5657 318.78 19.3512 317.954 20.8472C317.176 22.3432 315.985 23.5496 314.381 24.4665C312.777 25.3351 310.808 25.9142 308.474 26.2038V26.3485C312.801 26.7828 316.034 28.0617 318.172 30.185C320.311 32.2601 321.381 35.0831 321.381 38.6542C321.381 43.4799 319.582 47.0509 315.985 49.3673C312.388 51.6836 307.259 52.8418 300.599 52.8418H276.682ZM290.974 41.9839H299.651C301.742 41.9839 303.492 41.5737 304.902 40.7533C306.36 39.8847 307.089 38.5335 307.089 36.6997C307.089 34.866 306.384 33.5147 304.974 32.6461C303.565 31.7775 301.79 31.3432 299.651 31.3432H290.974V41.9839ZM290.974 22.0777H297.829C299.87 22.0777 301.547 21.6917 302.86 20.9196C304.221 20.0992 304.902 18.8686 304.902 17.2279C304.902 15.4906 304.245 14.2359 302.933 13.4638C301.62 12.6917 299.919 12.3056 297.829 12.3056H290.974V22.0777Z"/>
<path d="M338.833 52.8418C335.041 52.8418 332.1 51.9008 330.01 50.0188C327.919 48.1367 326.874 45.0724 326.874 40.8257V1.44772H341.02V39.2332C341.02 40.5844 341.336 41.5496 341.968 42.1287C342.6 42.6595 343.499 42.9249 344.666 42.9249H346.781V52.8418H338.833Z"/>
<path d="M364.052 53.7105C359.92 53.7105 356.518 52.7694 353.844 50.8874C351.17 49.0054 349.833 46.3753 349.833 42.9973C349.833 39.5228 350.976 36.8686 353.261 35.0349C355.594 33.1528 358.9 31.7533 363.177 30.8365L374.99 28.3753C374.99 26.3485 374.552 24.8043 373.677 23.7426C372.802 22.681 371.587 22.1501 370.032 22.1501C368.379 22.1501 367.091 22.5603 366.167 23.3807C365.292 24.1528 364.733 25.311 364.49 26.8552L350.49 26.4209C351.268 21.6917 353.334 18.2654 356.688 16.1421C360.042 13.9705 364.49 12.8847 370.032 12.8847C376.448 12.8847 381.237 14.2601 384.396 17.0107C387.556 19.7614 389.136 23.9357 389.136 29.5335V40.9705C389.136 42.2252 389.33 43.0456 389.719 43.4316C390.157 43.8177 390.74 44.0107 391.469 44.0107H392.271V52.8418C391.834 52.9866 391.129 53.1072 390.157 53.2038C389.185 53.3485 388.237 53.4209 387.313 53.4209C385.903 53.4209 384.445 53.1796 382.938 52.697C381.431 52.2145 380.167 51.2976 379.146 49.9464C378.125 48.5469 377.615 46.5201 377.615 43.866L378.636 45.0241C378.101 46.8097 377.226 48.3539 376.011 49.6568C374.796 50.9598 373.191 51.9732 371.198 52.697C369.254 53.3727 366.872 53.7105 364.052 53.7105ZM367.99 44.8794C369.302 44.8794 370.469 44.6139 371.49 44.0831C372.559 43.5523 373.41 42.756 374.042 41.6944C374.674 40.5844 374.99 39.185 374.99 37.496V36.193L368.573 37.7855C367.358 38.0751 366.337 38.5576 365.511 39.2332C364.733 39.8606 364.344 40.681 364.344 41.6944C364.344 42.7078 364.636 43.504 365.219 44.0831C365.802 44.6139 366.726 44.8794 367.99 44.8794Z"/>
<path d="M397.157 52.8418V13.7534H409.845L410.428 26.2038L408.678 26.059C408.97 22.7292 409.699 20.1233 410.865 18.2413C412.081 16.311 413.588 14.9357 415.386 14.1153C417.234 13.2949 419.275 12.8847 421.511 12.8847C424.234 12.8847 426.591 13.4638 428.584 14.622C430.626 15.7802 432.206 17.4692 433.324 19.689C434.442 21.8606 435.001 24.5389 435.001 27.7239V52.8418H420.855V32.5737C420.855 30.6917 420.734 29.0992 420.49 27.7962C420.296 26.445 419.859 25.4316 419.178 24.756C418.546 24.0322 417.598 23.6702 416.334 23.6702C414.536 23.6702 413.247 24.4424 412.47 25.9866C411.692 27.5308 411.303 29.7265 411.303 32.5737V52.8418H397.157Z"/>
<path d="M456.234 53.7105C452.977 53.7105 450.157 52.8901 447.775 51.2493C445.442 49.5603 443.619 47.1957 442.307 44.1555C441.043 41.067 440.411 37.4477 440.411 33.2976C440.411 29.1475 441.067 25.5523 442.379 22.5121C443.692 19.4236 445.539 17.059 447.921 15.4182C450.303 13.7292 453.074 12.8847 456.234 12.8847C459.15 12.8847 461.581 13.4638 463.525 14.622C465.47 15.7802 466.953 17.3727 467.973 19.3995V1.44772H482.119V52.8418H468.338L468.119 47.1957C467.05 49.2708 465.47 50.8874 463.38 52.0456C461.338 53.1555 458.956 53.7105 456.234 53.7105ZM461.411 43.6488C462.821 43.6488 464.012 43.2869 464.984 42.563C465.956 41.8391 466.685 40.7292 467.171 39.2332C467.706 37.689 467.973 35.7105 467.973 33.2976C467.973 30.8847 467.706 28.9303 467.171 27.4343C466.685 25.8901 465.956 24.756 464.984 24.0322C464.012 23.3083 462.821 22.9464 461.411 22.9464C459.418 22.9464 457.838 23.8874 456.671 25.7694C455.505 27.6032 454.921 30.1126 454.921 33.2976C454.921 36.3861 455.505 38.8954 456.671 40.8257C457.887 42.7078 459.466 43.6488 461.411 43.6488Z"/>
<path d="M509.127 53.7105C504.85 53.7105 501.106 52.866 497.898 51.1769C494.738 49.4879 492.259 47.1233 490.461 44.0831C488.71 40.9946 487.835 37.3995 487.835 33.2976C487.835 29.1957 488.71 25.6247 490.461 22.5844C492.259 19.5442 494.738 17.1796 497.898 15.4906C501.106 13.7533 504.85 12.8847 509.127 12.8847C513.405 12.8847 517.124 13.7533 520.284 15.4906C523.492 17.1796 525.971 19.5442 527.721 22.5844C529.52 25.6247 530.419 29.1957 530.419 33.2976C530.419 37.3995 529.52 40.9946 527.721 44.0831C525.971 47.1233 523.492 49.4879 520.284 51.1769C517.124 52.866 513.405 53.7105 509.127 53.7105ZM509.127 43.6488C511.315 43.6488 512.992 42.756 514.159 40.9705C515.325 39.185 515.909 36.6273 515.909 33.2976C515.909 30.0161 515.325 27.4826 514.159 25.697C512.992 23.8633 511.315 22.9464 509.127 22.9464C506.94 22.9464 505.263 23.8633 504.096 25.697C502.929 27.4826 502.346 30.0161 502.346 33.2976C502.346 36.6273 502.929 39.185 504.096 40.9705C505.263 42.756 506.94 43.6488 509.127 43.6488Z"/>
<path d="M536.156 52.8418V13.7534H548.843L549.427 26.2038L547.677 26.059C547.968 22.7292 548.698 20.1233 549.864 18.2413C551.08 16.311 552.587 14.9357 554.385 14.1153C556.232 13.2949 558.274 12.8847 560.51 12.8847C563.232 12.8847 565.59 13.4638 567.583 14.622C569.625 15.7802 571.205 17.4692 572.323 19.689C573.441 21.8606 574 24.5389 574 27.7239V52.8418H559.854V32.5737C559.854 30.6917 559.732 29.0992 559.489 27.7962C559.295 26.445 558.857 25.4316 558.177 24.756C557.545 24.0322 556.597 23.6702 555.333 23.6702C553.534 23.6702 552.246 24.4424 551.469 25.9866C550.691 27.5308 550.302 29.7265 550.302 32.5737V52.8418H536.156Z"/>
</mask>
<path d="M25.0107 54C20.1981 54 15.896 52.9383 12.1043 50.815C8.3612 48.6917 5.39589 45.6515 3.20837 41.6944C1.06946 37.689 0 32.8633 0 27.2172C0 21.8123 1.02084 17.1072 3.06253 13.1019C5.10422 9.04826 8.02092 5.91153 11.8126 3.69169C15.6043 1.42359 20.1009 0.289545 25.3024 0.289545C32.3997 0.289545 37.9171 2.00268 41.8546 5.42895C45.8408 8.85523 48.3929 13.8499 49.511 20.4129L34.7087 20.9196C34.2226 17.9759 33.1531 15.7078 31.5003 14.1153C29.8475 12.4745 27.7816 11.6542 25.3024 11.6542C22.9204 11.6542 20.9273 12.3298 19.3231 13.681C17.7676 14.9839 16.6009 16.8177 15.8231 19.1823C15.0453 21.4987 14.6564 24.1769 14.6564 27.2172C14.6564 30.3539 15.0696 33.0804 15.896 35.3968C16.7224 37.7131 17.9134 39.4987 19.469 40.7533C21.0731 42.008 22.969 42.6354 25.1565 42.6354C27.976 42.6354 30.1635 41.7909 31.7191 40.1019C33.2747 38.3646 34.2712 35.9276 34.7087 32.7909L49.5839 33.2976C48.8547 37.7855 47.445 41.5737 45.3547 44.6622C43.2644 47.7024 40.5178 50.0188 37.115 51.6113C33.7608 53.2038 29.726 54 25.0107 54Z" fill="url(#paint0_linear_1_289)" fill-opacity="0.12"/>
<path d="M67.8252 53.7105C63.6932 53.7105 60.2904 52.7694 57.6168 50.8874C54.9431 49.0054 53.6063 46.3753 53.6063 42.9973C53.6063 39.5228 54.7487 36.8686 57.0334 35.0349C59.3668 33.1528 62.6724 31.7533 66.9502 30.8365L78.7628 28.3753C78.7628 26.3485 78.3253 24.8043 77.4503 23.7426C76.5753 22.681 75.36 22.1501 73.8044 22.1501C72.1516 22.1501 70.8634 22.5603 69.9398 23.3807C69.0648 24.1528 68.5058 25.311 68.2627 26.8552L54.2626 26.4209C55.0403 21.6917 57.1063 18.2654 60.4605 16.1421C63.8147 13.9705 68.2627 12.8847 73.8044 12.8847C80.2212 12.8847 85.0094 14.2601 88.1692 17.0107C91.3289 19.7614 92.9088 23.9357 92.9088 29.5335V40.9705C92.9088 42.2252 93.1033 43.0456 93.4921 43.4316C93.9296 43.8177 94.513 44.0107 95.2422 44.0107H96.0443V52.8418C95.6068 52.9866 94.9019 53.1072 93.9296 53.2038C92.9574 53.3485 92.0095 53.4209 91.0859 53.4209C89.6761 53.4209 88.2178 53.1796 86.7108 52.697C85.2039 52.2145 83.94 51.2976 82.9191 49.9464C81.8983 48.5469 81.3878 46.5201 81.3878 43.866L82.4087 45.0241C81.874 46.8097 80.999 48.3539 79.7837 49.6568C78.5684 50.9598 76.9642 51.9732 74.9711 52.697C73.0266 53.3727 70.6447 53.7105 67.8252 53.7105ZM71.7627 44.8794C73.0753 44.8794 74.2419 44.6139 75.2628 44.0831C76.3322 43.5523 77.1829 42.756 77.8149 41.6944C78.4468 40.5844 78.7628 39.185 78.7628 37.496V36.193L72.3461 37.7855C71.1308 38.0751 70.1099 38.5576 69.2836 39.2332C68.5058 39.8606 68.1169 40.681 68.1169 41.6944C68.1169 42.7078 68.4085 43.504 68.9919 44.0831C69.5752 44.6139 70.4988 44.8794 71.7627 44.8794Z" fill="url(#paint1_linear_1_289)" fill-opacity="0.12"/>
<path d="M100.93 52.8418V13.7534H113.617L114.055 22.874L113.034 22.2949C113.569 20.2681 114.371 18.555 115.44 17.1555C116.558 15.756 117.871 14.6944 119.378 13.9705C120.933 13.2466 122.611 12.8847 124.409 12.8847C127.618 12.8847 130.194 13.8499 132.138 15.7802C134.083 17.6622 135.347 20.1716 135.93 23.3083L134.472 23.4531C134.958 21.1367 135.76 19.2064 136.878 17.6622C137.996 16.0697 139.333 14.8874 140.888 14.1153C142.493 13.2949 144.243 12.8847 146.139 12.8847C148.764 12.8847 151.073 13.4397 153.066 14.5496C155.059 15.6595 156.614 17.3244 157.732 19.5442C158.899 21.7158 159.482 24.4424 159.482 27.7239V52.8418H145.336V31.8499C145.336 29.0992 144.996 27.0483 144.316 25.697C143.684 24.3458 142.541 23.6702 140.888 23.6702C139.868 23.6702 139.017 23.9839 138.336 24.6113C137.704 25.2386 137.218 26.1796 136.878 27.4343C136.538 28.6408 136.368 30.1126 136.368 31.8499V52.8418H123.972V31.8499C123.972 29.0992 123.656 27.0483 123.024 25.697C122.392 24.3458 121.249 23.6702 119.597 23.6702C118.576 23.6702 117.725 23.9839 117.044 24.6113C116.413 25.2386 115.926 26.1796 115.586 27.4343C115.246 28.6408 115.076 30.1126 115.076 31.8499V52.8418H100.93Z" fill="url(#paint2_linear_1_289)" fill-opacity="0.12"/>
<path d="M167.082 52.8418V13.7534H181.228V52.8418H167.082ZM166.864 9.8445V0H181.447V9.8445H166.864Z" fill="url(#paint3_linear_1_289)" fill-opacity="0.12"/>
<path d="M201.187 52.8418C197.395 52.8418 194.454 51.9008 192.364 50.0188C190.273 48.1367 189.228 45.0724 189.228 40.8257V1.44772H203.374V39.2332C203.374 40.5844 203.69 41.5496 204.322 42.1287C204.954 42.6595 205.853 42.9249 207.02 42.9249H209.135V52.8418H201.187Z" fill="url(#paint4_linear_1_289)" fill-opacity="0.12"/>
<path d="M232.91 53.7105C228.632 53.7105 224.889 52.866 221.68 51.1769C218.521 49.4879 216.042 47.1233 214.243 44.0831C212.493 40.9946 211.618 37.3995 211.618 33.2976C211.618 29.1957 212.493 25.6247 214.243 22.5844C216.042 19.5442 218.521 17.1796 221.68 15.4906C224.889 13.7533 228.632 12.8847 232.91 12.8847C237.188 12.8847 240.906 13.7533 244.066 15.4906C247.275 17.1796 249.754 19.5442 251.504 22.5844C253.302 25.6247 254.202 29.1957 254.202 33.2976C254.202 37.3995 253.302 40.9946 251.504 44.0831C249.754 47.1233 247.275 49.4879 244.066 51.1769C240.906 52.866 237.188 53.7105 232.91 53.7105ZM232.91 43.6488C235.097 43.6488 236.774 42.756 237.941 40.9705C239.108 39.185 239.691 36.6273 239.691 33.2976C239.691 30.0161 239.108 27.4826 237.941 25.697C236.774 23.8633 235.097 22.9464 232.91 22.9464C230.722 22.9464 229.045 23.8633 227.878 25.697C226.712 27.4826 226.128 30.0161 226.128 33.2976C226.128 36.6273 226.712 39.185 227.878 40.9705C229.045 42.756 230.722 43.6488 232.91 43.6488Z" fill="url(#paint5_linear_1_289)" fill-opacity="0.12"/>
<path d="M276.682 52.8418V1.44772H298.412C305.023 1.44772 310.127 2.58177 313.725 4.84986C317.37 7.0697 319.193 10.6166 319.193 15.4906C319.193 17.5657 318.78 19.3512 317.954 20.8472C317.176 22.3432 315.985 23.5496 314.381 24.4665C312.777 25.3351 310.808 25.9142 308.474 26.2038V26.3485C312.801 26.7828 316.034 28.0617 318.172 30.185C320.311 32.2601 321.381 35.0831 321.381 38.6542C321.381 43.4799 319.582 47.0509 315.985 49.3673C312.388 51.6836 307.259 52.8418 300.599 52.8418H276.682ZM290.974 41.9839H299.651C301.742 41.9839 303.492 41.5737 304.902 40.7533C306.36 39.8847 307.089 38.5335 307.089 36.6997C307.089 34.866 306.384 33.5147 304.974 32.6461C303.565 31.7775 301.79 31.3432 299.651 31.3432H290.974V41.9839ZM290.974 22.0777H297.829C299.87 22.0777 301.547 21.6917 302.86 20.9196C304.221 20.0992 304.902 18.8686 304.902 17.2279C304.902 15.4906 304.245 14.2359 302.933 13.4638C301.62 12.6917 299.919 12.3056 297.829 12.3056H290.974V22.0777Z" fill="url(#paint6_linear_1_289)" fill-opacity="0.12"/>
<path d="M338.833 52.8418C335.041 52.8418 332.1 51.9008 330.01 50.0188C327.919 48.1367 326.874 45.0724 326.874 40.8257V1.44772H341.02V39.2332C341.02 40.5844 341.336 41.5496 341.968 42.1287C342.6 42.6595 343.499 42.9249 344.666 42.9249H346.781V52.8418H338.833Z" fill="url(#paint7_linear_1_289)" fill-opacity="0.12"/>
<path d="M364.052 53.7105C359.92 53.7105 356.518 52.7694 353.844 50.8874C351.17 49.0054 349.833 46.3753 349.833 42.9973C349.833 39.5228 350.976 36.8686 353.261 35.0349C355.594 33.1528 358.9 31.7533 363.177 30.8365L374.99 28.3753C374.99 26.3485 374.552 24.8043 373.677 23.7426C372.802 22.681 371.587 22.1501 370.032 22.1501C368.379 22.1501 367.091 22.5603 366.167 23.3807C365.292 24.1528 364.733 25.311 364.49 26.8552L350.49 26.4209C351.268 21.6917 353.334 18.2654 356.688 16.1421C360.042 13.9705 364.49 12.8847 370.032 12.8847C376.448 12.8847 381.237 14.2601 384.396 17.0107C387.556 19.7614 389.136 23.9357 389.136 29.5335V40.9705C389.136 42.2252 389.33 43.0456 389.719 43.4316C390.157 43.8177 390.74 44.0107 391.469 44.0107H392.271V52.8418C391.834 52.9866 391.129 53.1072 390.157 53.2038C389.185 53.3485 388.237 53.4209 387.313 53.4209C385.903 53.4209 384.445 53.1796 382.938 52.697C381.431 52.2145 380.167 51.2976 379.146 49.9464C378.125 48.5469 377.615 46.5201 377.615 43.866L378.636 45.0241C378.101 46.8097 377.226 48.3539 376.011 49.6568C374.796 50.9598 373.191 51.9732 371.198 52.697C369.254 53.3727 366.872 53.7105 364.052 53.7105ZM367.99 44.8794C369.302 44.8794 370.469 44.6139 371.49 44.0831C372.559 43.5523 373.41 42.756 374.042 41.6944C374.674 40.5844 374.99 39.185 374.99 37.496V36.193L368.573 37.7855C367.358 38.0751 366.337 38.5576 365.511 39.2332C364.733 39.8606 364.344 40.681 364.344 41.6944C364.344 42.7078 364.636 43.504 365.219 44.0831C365.802 44.6139 366.726 44.8794 367.99 44.8794Z" fill="url(#paint8_linear_1_289)" fill-opacity="0.12"/>
<path d="M397.157 52.8418V13.7534H409.845L410.428 26.2038L408.678 26.059C408.97 22.7292 409.699 20.1233 410.865 18.2413C412.081 16.311 413.588 14.9357 415.386 14.1153C417.234 13.2949 419.275 12.8847 421.511 12.8847C424.234 12.8847 426.591 13.4638 428.584 14.622C430.626 15.7802 432.206 17.4692 433.324 19.689C434.442 21.8606 435.001 24.5389 435.001 27.7239V52.8418H420.855V32.5737C420.855 30.6917 420.734 29.0992 420.49 27.7962C420.296 26.445 419.859 25.4316 419.178 24.756C418.546 24.0322 417.598 23.6702 416.334 23.6702C414.536 23.6702 413.247 24.4424 412.47 25.9866C411.692 27.5308 411.303 29.7265 411.303 32.5737V52.8418H397.157Z" fill="url(#paint9_linear_1_289)" fill-opacity="0.12"/>
<path d="M456.234 53.7105C452.977 53.7105 450.157 52.8901 447.775 51.2493C445.442 49.5603 443.619 47.1957 442.307 44.1555C441.043 41.067 440.411 37.4477 440.411 33.2976C440.411 29.1475 441.067 25.5523 442.379 22.5121C443.692 19.4236 445.539 17.059 447.921 15.4182C450.303 13.7292 453.074 12.8847 456.234 12.8847C459.15 12.8847 461.581 13.4638 463.525 14.622C465.47 15.7802 466.953 17.3727 467.973 19.3995V1.44772H482.119V52.8418H468.338L468.119 47.1957C467.05 49.2708 465.47 50.8874 463.38 52.0456C461.338 53.1555 458.956 53.7105 456.234 53.7105ZM461.411 43.6488C462.821 43.6488 464.012 43.2869 464.984 42.563C465.956 41.8391 466.685 40.7292 467.171 39.2332C467.706 37.689 467.973 35.7105 467.973 33.2976C467.973 30.8847 467.706 28.9303 467.171 27.4343C466.685 25.8901 465.956 24.756 464.984 24.0322C464.012 23.3083 462.821 22.9464 461.411 22.9464C459.418 22.9464 457.838 23.8874 456.671 25.7694C455.505 27.6032 454.921 30.1126 454.921 33.2976C454.921 36.3861 455.505 38.8954 456.671 40.8257C457.887 42.7078 459.466 43.6488 461.411 43.6488Z" fill="url(#paint10_linear_1_289)" fill-opacity="0.12"/>
<path d="M509.127 53.7105C504.85 53.7105 501.106 52.866 497.898 51.1769C494.738 49.4879 492.259 47.1233 490.461 44.0831C488.71 40.9946 487.835 37.3995 487.835 33.2976C487.835 29.1957 488.71 25.6247 490.461 22.5844C492.259 19.5442 494.738 17.1796 497.898 15.4906C501.106 13.7533 504.85 12.8847 509.127 12.8847C513.405 12.8847 517.124 13.7533 520.284 15.4906C523.492 17.1796 525.971 19.5442 527.721 22.5844C529.52 25.6247 530.419 29.1957 530.419 33.2976C530.419 37.3995 529.52 40.9946 527.721 44.0831C525.971 47.1233 523.492 49.4879 520.284 51.1769C517.124 52.866 513.405 53.7105 509.127 53.7105ZM509.127 43.6488C511.315 43.6488 512.992 42.756 514.159 40.9705C515.325 39.185 515.909 36.6273 515.909 33.2976C515.909 30.0161 515.325 27.4826 514.159 25.697C512.992 23.8633 511.315 22.9464 509.127 22.9464C506.94 22.9464 505.263 23.8633 504.096 25.697C502.929 27.4826 502.346 30.0161 502.346 33.2976C502.346 36.6273 502.929 39.185 504.096 40.9705C505.263 42.756 506.94 43.6488 509.127 43.6488Z" fill="url(#paint11_linear_1_289)" fill-opacity="0.12"/>
<path d="M536.156 52.8418V13.7534H548.843L549.427 26.2038L547.677 26.059C547.968 22.7292 548.698 20.1233 549.864 18.2413C551.08 16.311 552.587 14.9357 554.385 14.1153C556.232 13.2949 558.274 12.8847 560.51 12.8847C563.232 12.8847 565.59 13.4638 567.583 14.622C569.625 15.7802 571.205 17.4692 572.323 19.689C573.441 21.8606 574 24.5389 574 27.7239V52.8418H559.854V32.5737C559.854 30.6917 559.732 29.0992 559.489 27.7962C559.295 26.445 558.857 25.4316 558.177 24.756C557.545 24.0322 556.597 23.6702 555.333 23.6702C553.534 23.6702 552.246 24.4424 551.469 25.9866C550.691 27.5308 550.302 29.7265 550.302 32.5737V52.8418H536.156Z" fill="url(#paint12_linear_1_289)" fill-opacity="0.12"/>
<path d="M25.0107 54C20.1981 54 15.896 52.9383 12.1043 50.815C8.3612 48.6917 5.39589 45.6515 3.20837 41.6944C1.06946 37.689 0 32.8633 0 27.2172C0 21.8123 1.02084 17.1072 3.06253 13.1019C5.10422 9.04826 8.02092 5.91153 11.8126 3.69169C15.6043 1.42359 20.1009 0.289545 25.3024 0.289545C32.3997 0.289545 37.9171 2.00268 41.8546 5.42895C45.8408 8.85523 48.3929 13.8499 49.511 20.4129L34.7087 20.9196C34.2226 17.9759 33.1531 15.7078 31.5003 14.1153C29.8475 12.4745 27.7816 11.6542 25.3024 11.6542C22.9204 11.6542 20.9273 12.3298 19.3231 13.681C17.7676 14.9839 16.6009 16.8177 15.8231 19.1823C15.0453 21.4987 14.6564 24.1769 14.6564 27.2172C14.6564 30.3539 15.0696 33.0804 15.896 35.3968C16.7224 37.7131 17.9134 39.4987 19.469 40.7533C21.0731 42.008 22.969 42.6354 25.1565 42.6354C27.976 42.6354 30.1635 41.7909 31.7191 40.1019C33.2747 38.3646 34.2712 35.9276 34.7087 32.7909L49.5839 33.2976C48.8547 37.7855 47.445 41.5737 45.3547 44.6622C43.2644 47.7024 40.5178 50.0188 37.115 51.6113C33.7608 53.2038 29.726 54 25.0107 54Z" stroke="white" stroke-opacity="0.05" stroke-width="2" mask="url(#path-1-inside-1_1_289)"/>
<path d="M25.0107 54C20.1981 54 15.896 52.9383 12.1043 50.815C8.3612 48.6917 5.39589 45.6515 3.20837 41.6944C1.06946 37.689 0 32.8633 0 27.2172C0 21.8123 1.02084 17.1072 3.06253 13.1019C5.10422 9.04826 8.02092 5.91153 11.8126 3.69169C15.6043 1.42359 20.1009 0.289545 25.3024 0.289545C32.3997 0.289545 37.9171 2.00268 41.8546 5.42895C45.8408 8.85523 48.3929 13.8499 49.511 20.4129L34.7087 20.9196C34.2226 17.9759 33.1531 15.7078 31.5003 14.1153C29.8475 12.4745 27.7816 11.6542 25.3024 11.6542C22.9204 11.6542 20.9273 12.3298 19.3231 13.681C17.7676 14.9839 16.6009 16.8177 15.8231 19.1823C15.0453 21.4987 14.6564 24.1769 14.6564 27.2172C14.6564 30.3539 15.0696 33.0804 15.896 35.3968C16.7224 37.7131 17.9134 39.4987 19.469 40.7533C21.0731 42.008 22.969 42.6354 25.1565 42.6354C27.976 42.6354 30.1635 41.7909 31.7191 40.1019C33.2747 38.3646 34.2712 35.9276 34.7087 32.7909L49.5839 33.2976C48.8547 37.7855 47.445 41.5737 45.3547 44.6622C43.2644 47.7024 40.5178 50.0188 37.115 51.6113C33.7608 53.2038 29.726 54 25.0107 54Z" stroke="url(#paint13_linear_1_289)" stroke-opacity="0.22" stroke-width="2" mask="url(#path-1-inside-1_1_289)"/>
<path d="M67.8252 53.7105C63.6932 53.7105 60.2904 52.7694 57.6168 50.8874C54.9431 49.0054 53.6063 46.3753 53.6063 42.9973C53.6063 39.5228 54.7487 36.8686 57.0334 35.0349C59.3668 33.1528 62.6724 31.7533 66.9502 30.8365L78.7628 28.3753C78.7628 26.3485 78.3253 24.8043 77.4503 23.7426C76.5753 22.681 75.36 22.1501 73.8044 22.1501C72.1516 22.1501 70.8634 22.5603 69.9398 23.3807C69.0648 24.1528 68.5058 25.311 68.2627 26.8552L54.2626 26.4209C55.0403 21.6917 57.1063 18.2654 60.4605 16.1421C63.8147 13.9705 68.2627 12.8847 73.8044 12.8847C80.2212 12.8847 85.0094 14.2601 88.1692 17.0107C91.3289 19.7614 92.9088 23.9357 92.9088 29.5335V40.9705C92.9088 42.2252 93.1033 43.0456 93.4921 43.4316C93.9296 43.8177 94.513 44.0107 95.2422 44.0107H96.0443V52.8418C95.6068 52.9866 94.9019 53.1072 93.9296 53.2038C92.9574 53.3485 92.0095 53.4209 91.0859 53.4209C89.6761 53.4209 88.2178 53.1796 86.7108 52.697C85.2039 52.2145 83.94 51.2976 82.9191 49.9464C81.8983 48.5469 81.3878 46.5201 81.3878 43.866L82.4087 45.0241C81.874 46.8097 80.999 48.3539 79.7837 49.6568C78.5684 50.9598 76.9642 51.9732 74.9711 52.697C73.0266 53.3727 70.6447 53.7105 67.8252 53.7105ZM71.7627 44.8794C73.0753 44.8794 74.2419 44.6139 75.2628 44.0831C76.3322 43.5523 77.1829 42.756 77.8149 41.6944C78.4468 40.5844 78.7628 39.185 78.7628 37.496V36.193L72.3461 37.7855C71.1308 38.0751 70.1099 38.5576 69.2836 39.2332C68.5058 39.8606 68.1169 40.681 68.1169 41.6944C68.1169 42.7078 68.4085 43.504 68.9919 44.0831C69.5752 44.6139 70.4988 44.8794 71.7627 44.8794Z" stroke="white" stroke-opacity="0.05" stroke-width="2" mask="url(#path-1-inside-1_1_289)"/>
<path d="M67.8252 53.7105C63.6932 53.7105 60.2904 52.7694 57.6168 50.8874C54.9431 49.0054 53.6063 46.3753 53.6063 42.9973C53.6063 39.5228 54.7487 36.8686 57.0334 35.0349C59.3668 33.1528 62.6724 31.7533 66.9502 30.8365L78.7628 28.3753C78.7628 26.3485 78.3253 24.8043 77.4503 23.7426C76.5753 22.681 75.36 22.1501 73.8044 22.1501C72.1516 22.1501 70.8634 22.5603 69.9398 23.3807C69.0648 24.1528 68.5058 25.311 68.2627 26.8552L54.2626 26.4209C55.0403 21.6917 57.1063 18.2654 60.4605 16.1421C63.8147 13.9705 68.2627 12.8847 73.8044 12.8847C80.2212 12.8847 85.0094 14.2601 88.1692 17.0107C91.3289 19.7614 92.9088 23.9357 92.9088 29.5335V40.9705C92.9088 42.2252 93.1033 43.0456 93.4921 43.4316C93.9296 43.8177 94.513 44.0107 95.2422 44.0107H96.0443V52.8418C95.6068 52.9866 94.9019 53.1072 93.9296 53.2038C92.9574 53.3485 92.0095 53.4209 91.0859 53.4209C89.6761 53.4209 88.2178 53.1796 86.7108 52.697C85.2039 52.2145 83.94 51.2976 82.9191 49.9464C81.8983 48.5469 81.3878 46.5201 81.3878 43.866L82.4087 45.0241C81.874 46.8097 80.999 48.3539 79.7837 49.6568C78.5684 50.9598 76.9642 51.9732 74.9711 52.697C73.0266 53.3727 70.6447 53.7105 67.8252 53.7105ZM71.7627 44.8794C73.0753 44.8794 74.2419 44.6139 75.2628 44.0831C76.3322 43.5523 77.1829 42.756 77.8149 41.6944C78.4468 40.5844 78.7628 39.185 78.7628 37.496V36.193L72.3461 37.7855C71.1308 38.0751 70.1099 38.5576 69.2836 39.2332C68.5058 39.8606 68.1169 40.681 68.1169 41.6944C68.1169 42.7078 68.4085 43.504 68.9919 44.0831C69.5752 44.6139 70.4988 44.8794 71.7627 44.8794Z" stroke="url(#paint14_linear_1_289)" stroke-opacity="0.22" stroke-width="2" mask="url(#path-1-inside-1_1_289)"/>
<path d="M100.93 52.8418V13.7534H113.617L114.055 22.874L113.034 22.2949C113.569 20.2681 114.371 18.555 115.44 17.1555C116.558 15.756 117.871 14.6944 119.378 13.9705C120.933 13.2466 122.611 12.8847 124.409 12.8847C127.618 12.8847 130.194 13.8499 132.138 15.7802C134.083 17.6622 135.347 20.1716 135.93 23.3083L134.472 23.4531C134.958 21.1367 135.76 19.2064 136.878 17.6622C137.996 16.0697 139.333 14.8874 140.888 14.1153C142.493 13.2949 144.243 12.8847 146.139 12.8847C148.764 12.8847 151.073 13.4397 153.066 14.5496C155.059 15.6595 156.614 17.3244 157.732 19.5442C158.899 21.7158 159.482 24.4424 159.482 27.7239V52.8418H145.336V31.8499C145.336 29.0992 144.996 27.0483 144.316 25.697C143.684 24.3458 142.541 23.6702 140.888 23.6702C139.868 23.6702 139.017 23.9839 138.336 24.6113C137.704 25.2386 137.218 26.1796 136.878 27.4343C136.538 28.6408 136.368 30.1126 136.368 31.8499V52.8418H123.972V31.8499C123.972 29.0992 123.656 27.0483 123.024 25.697C122.392 24.3458 121.249 23.6702 119.597 23.6702C118.576 23.6702 117.725 23.9839 117.044 24.6113C116.413 25.2386 115.926 26.1796 115.586 27.4343C115.246 28.6408 115.076 30.1126 115.076 31.8499V52.8418H100.93Z" stroke="white" stroke-opacity="0.05" stroke-width="2" mask="url(#path-1-inside-1_1_289)"/>
<path d="M100.93 52.8418V13.7534H113.617L114.055 22.874L113.034 22.2949C113.569 20.2681 114.371 18.555 115.44 17.1555C116.558 15.756 117.871 14.6944 119.378 13.9705C120.933 13.2466 122.611 12.8847 124.409 12.8847C127.618 12.8847 130.194 13.8499 132.138 15.7802C134.083 17.6622 135.347 20.1716 135.93 23.3083L134.472 23.4531C134.958 21.1367 135.76 19.2064 136.878 17.6622C137.996 16.0697 139.333 14.8874 140.888 14.1153C142.493 13.2949 144.243 12.8847 146.139 12.8847C148.764 12.8847 151.073 13.4397 153.066 14.5496C155.059 15.6595 156.614 17.3244 157.732 19.5442C158.899 21.7158 159.482 24.4424 159.482 27.7239V52.8418H145.336V31.8499C145.336 29.0992 144.996 27.0483 144.316 25.697C143.684 24.3458 142.541 23.6702 140.888 23.6702C139.868 23.6702 139.017 23.9839 138.336 24.6113C137.704 25.2386 137.218 26.1796 136.878 27.4343C136.538 28.6408 136.368 30.1126 136.368 31.8499V52.8418H123.972V31.8499C123.972 29.0992 123.656 27.0483 123.024 25.697C122.392 24.3458 121.249 23.6702 119.597 23.6702C118.576 23.6702 117.725 23.9839 117.044 24.6113C116.413 25.2386 115.926 26.1796 115.586 27.4343C115.246 28.6408 115.076 30.1126 115.076 31.8499V52.8418H100.93Z" stroke="url(#paint15_linear_1_289)" stroke-opacity="0.22" stroke-width="2" mask="url(#path-1-inside-1_1_289)"/>
<path d="M167.082 52.8418V13.7534H181.228V52.8418H167.082ZM166.864 9.8445V0H181.447V9.8445H166.864Z" stroke="white" stroke-opacity="0.05" stroke-width="2" mask="url(#path-1-inside-1_1_289)"/>
<path d="M167.082 52.8418V13.7534H181.228V52.8418H167.082ZM166.864 9.8445V0H181.447V9.8445H166.864Z" stroke="url(#paint16_linear_1_289)" stroke-opacity="0.22" stroke-width="2" mask="url(#path-1-inside-1_1_289)"/>
<path d="M201.187 52.8418C197.395 52.8418 194.454 51.9008 192.364 50.0188C190.273 48.1367 189.228 45.0724 189.228 40.8257V1.44772H203.374V39.2332C203.374 40.5844 203.69 41.5496 204.322 42.1287C204.954 42.6595 205.853 42.9249 207.02 42.9249H209.135V52.8418H201.187Z" stroke="white" stroke-opacity="0.05" stroke-width="2" mask="url(#path-1-inside-1_1_289)"/>
<path d="M201.187 52.8418C197.395 52.8418 194.454 51.9008 192.364 50.0188C190.273 48.1367 189.228 45.0724 189.228 40.8257V1.44772H203.374V39.2332C203.374 40.5844 203.69 41.5496 204.322 42.1287C204.954 42.6595 205.853 42.9249 207.02 42.9249H209.135V52.8418H201.187Z" stroke="url(#paint17_linear_1_289)" stroke-opacity="0.22" stroke-width="2" mask="url(#path-1-inside-1_1_289)"/>
<path d="M232.91 53.7105C228.632 53.7105 224.889 52.866 221.68 51.1769C218.521 49.4879 216.042 47.1233 214.243 44.0831C212.493 40.9946 211.618 37.3995 211.618 33.2976C211.618 29.1957 212.493 25.6247 214.243 22.5844C216.042 19.5442 218.521 17.1796 221.68 15.4906C224.889 13.7533 228.632 12.8847 232.91 12.8847C237.188 12.8847 240.906 13.7533 244.066 15.4906C247.275 17.1796 249.754 19.5442 251.504 22.5844C253.302 25.6247 254.202 29.1957 254.202 33.2976C254.202 37.3995 253.302 40.9946 251.504 44.0831C249.754 47.1233 247.275 49.4879 244.066 51.1769C240.906 52.866 237.188 53.7105 232.91 53.7105ZM232.91 43.6488C235.097 43.6488 236.774 42.756 237.941 40.9705C239.108 39.185 239.691 36.6273 239.691 33.2976C239.691 30.0161 239.108 27.4826 237.941 25.697C236.774 23.8633 235.097 22.9464 232.91 22.9464C230.722 22.9464 229.045 23.8633 227.878 25.697C226.712 27.4826 226.128 30.0161 226.128 33.2976C226.128 36.6273 226.712 39.185 227.878 40.9705C229.045 42.756 230.722 43.6488 232.91 43.6488Z" stroke="white" stroke-opacity="0.05" stroke-width="2" mask="url(#path-1-inside-1_1_289)"/>
<path d="M232.91 53.7105C228.632 53.7105 224.889 52.866 221.68 51.1769C218.521 49.4879 216.042 47.1233 214.243 44.0831C212.493 40.9946 211.618 37.3995 211.618 33.2976C211.618 29.1957 212.493 25.6247 214.243 22.5844C216.042 19.5442 218.521 17.1796 221.68 15.4906C224.889 13.7533 228.632 12.8847 232.91 12.8847C237.188 12.8847 240.906 13.7533 244.066 15.4906C247.275 17.1796 249.754 19.5442 251.504 22.5844C253.302 25.6247 254.202 29.1957 254.202 33.2976C254.202 37.3995 253.302 40.9946 251.504 44.0831C249.754 47.1233 247.275 49.4879 244.066 51.1769C240.906 52.866 237.188 53.7105 232.91 53.7105ZM232.91 43.6488C235.097 43.6488 236.774 42.756 237.941 40.9705C239.108 39.185 239.691 36.6273 239.691 33.2976C239.691 30.0161 239.108 27.4826 237.941 25.697C236.774 23.8633 235.097 22.9464 232.91 22.9464C230.722 22.9464 229.045 23.8633 227.878 25.697C226.712 27.4826 226.128 30.0161 226.128 33.2976C226.128 36.6273 226.712 39.185 227.878 40.9705C229.045 42.756 230.722 43.6488 232.91 43.6488Z" stroke="url(#paint18_linear_1_289)" stroke-opacity="0.22" stroke-width="2" mask="url(#path-1-inside-1_1_289)"/>
<path d="M276.682 52.8418V1.44772H298.412C305.023 1.44772 310.127 2.58177 313.725 4.84986C317.37 7.0697 319.193 10.6166 319.193 15.4906C319.193 17.5657 318.78 19.3512 317.954 20.8472C317.176 22.3432 315.985 23.5496 314.381 24.4665C312.777 25.3351 310.808 25.9142 308.474 26.2038V26.3485C312.801 26.7828 316.034 28.0617 318.172 30.185C320.311 32.2601 321.381 35.0831 321.381 38.6542C321.381 43.4799 319.582 47.0509 315.985 49.3673C312.388 51.6836 307.259 52.8418 300.599 52.8418H276.682ZM290.974 41.9839H299.651C301.742 41.9839 303.492 41.5737 304.902 40.7533C306.36 39.8847 307.089 38.5335 307.089 36.6997C307.089 34.866 306.384 33.5147 304.974 32.6461C303.565 31.7775 301.79 31.3432 299.651 31.3432H290.974V41.9839ZM290.974 22.0777H297.829C299.87 22.0777 301.547 21.6917 302.86 20.9196C304.221 20.0992 304.902 18.8686 304.902 17.2279C304.902 15.4906 304.245 14.2359 302.933 13.4638C301.62 12.6917 299.919 12.3056 297.829 12.3056H290.974V22.0777Z" stroke="white" stroke-opacity="0.05" stroke-width="2" mask="url(#path-1-inside-1_1_289)"/>
<path d="M276.682 52.8418V1.44772H298.412C305.023 1.44772 310.127 2.58177 313.725 4.84986C317.37 7.0697 319.193 10.6166 319.193 15.4906C319.193 17.5657 318.78 19.3512 317.954 20.8472C317.176 22.3432 315.985 23.5496 314.381 24.4665C312.777 25.3351 310.808 25.9142 308.474 26.2038V26.3485C312.801 26.7828 316.034 28.0617 318.172 30.185C320.311 32.2601 321.381 35.0831 321.381 38.6542C321.381 43.4799 319.582 47.0509 315.985 49.3673C312.388 51.6836 307.259 52.8418 300.599 52.8418H276.682ZM290.974 41.9839H299.651C301.742 41.9839 303.492 41.5737 304.902 40.7533C306.36 39.8847 307.089 38.5335 307.089 36.6997C307.089 34.866 306.384 33.5147 304.974 32.6461C303.565 31.7775 301.79 31.3432 299.651 31.3432H290.974V41.9839ZM290.974 22.0777H297.829C299.87 22.0777 301.547 21.6917 302.86 20.9196C304.221 20.0992 304.902 18.8686 304.902 17.2279C304.902 15.4906 304.245 14.2359 302.933 13.4638C301.62 12.6917 299.919 12.3056 297.829 12.3056H290.974V22.0777Z" stroke="url(#paint19_linear_1_289)" stroke-opacity="0.22" stroke-width="2" mask="url(#path-1-inside-1_1_289)"/>
<path d="M338.833 52.8418C335.041 52.8418 332.1 51.9008 330.01 50.0188C327.919 48.1367 326.874 45.0724 326.874 40.8257V1.44772H341.02V39.2332C341.02 40.5844 341.336 41.5496 341.968 42.1287C342.6 42.6595 343.499 42.9249 344.666 42.9249H346.781V52.8418H338.833Z" stroke="white" stroke-opacity="0.05" stroke-width="2" mask="url(#path-1-inside-1_1_289)"/>
<path d="M338.833 52.8418C335.041 52.8418 332.1 51.9008 330.01 50.0188C327.919 48.1367 326.874 45.0724 326.874 40.8257V1.44772H341.02V39.2332C341.02 40.5844 341.336 41.5496 341.968 42.1287C342.6 42.6595 343.499 42.9249 344.666 42.9249H346.781V52.8418H338.833Z" stroke="url(#paint20_linear_1_289)" stroke-opacity="0.22" stroke-width="2" mask="url(#path-1-inside-1_1_289)"/>
<path d="M364.052 53.7105C359.92 53.7105 356.518 52.7694 353.844 50.8874C351.17 49.0054 349.833 46.3753 349.833 42.9973C349.833 39.5228 350.976 36.8686 353.261 35.0349C355.594 33.1528 358.9 31.7533 363.177 30.8365L374.99 28.3753C374.99 26.3485 374.552 24.8043 373.677 23.7426C372.802 22.681 371.587 22.1501 370.032 22.1501C368.379 22.1501 367.091 22.5603 366.167 23.3807C365.292 24.1528 364.733 25.311 364.49 26.8552L350.49 26.4209C351.268 21.6917 353.334 18.2654 356.688 16.1421C360.042 13.9705 364.49 12.8847 370.032 12.8847C376.448 12.8847 381.237 14.2601 384.396 17.0107C387.556 19.7614 389.136 23.9357 389.136 29.5335V40.9705C389.136 42.2252 389.33 43.0456 389.719 43.4316C390.157 43.8177 390.74 44.0107 391.469 44.0107H392.271V52.8418C391.834 52.9866 391.129 53.1072 390.157 53.2038C389.185 53.3485 388.237 53.4209 387.313 53.4209C385.903 53.4209 384.445 53.1796 382.938 52.697C381.431 52.2145 380.167 51.2976 379.146 49.9464C378.125 48.5469 377.615 46.5201 377.615 43.866L378.636 45.0241C378.101 46.8097 377.226 48.3539 376.011 49.6568C374.796 50.9598 373.191 51.9732 371.198 52.697C369.254 53.3727 366.872 53.7105 364.052 53.7105ZM367.99 44.8794C369.302 44.8794 370.469 44.6139 371.49 44.0831C372.559 43.5523 373.41 42.756 374.042 41.6944C374.674 40.5844 374.99 39.185 374.99 37.496V36.193L368.573 37.7855C367.358 38.0751 366.337 38.5576 365.511 39.2332C364.733 39.8606 364.344 40.681 364.344 41.6944C364.344 42.7078 364.636 43.504 365.219 44.0831C365.802 44.6139 366.726 44.8794 367.99 44.8794Z" stroke="white" stroke-opacity="0.05" stroke-width="2" mask="url(#path-1-inside-1_1_289)"/>
<path d="M364.052 53.7105C359.92 53.7105 356.518 52.7694 353.844 50.8874C351.17 49.0054 349.833 46.3753 349.833 42.9973C349.833 39.5228 350.976 36.8686 353.261 35.0349C355.594 33.1528 358.9 31.7533 363.177 30.8365L374.99 28.3753C374.99 26.3485 374.552 24.8043 373.677 23.7426C372.802 22.681 371.587 22.1501 370.032 22.1501C368.379 22.1501 367.091 22.5603 366.167 23.3807C365.292 24.1528 364.733 25.311 364.49 26.8552L350.49 26.4209C351.268 21.6917 353.334 18.2654 356.688 16.1421C360.042 13.9705 364.49 12.8847 370.032 12.8847C376.448 12.8847 381.237 14.2601 384.396 17.0107C387.556 19.7614 389.136 23.9357 389.136 29.5335V40.9705C389.136 42.2252 389.33 43.0456 389.719 43.4316C390.157 43.8177 390.74 44.0107 391.469 44.0107H392.271V52.8418C391.834 52.9866 391.129 53.1072 390.157 53.2038C389.185 53.3485 388.237 53.4209 387.313 53.4209C385.903 53.4209 384.445 53.1796 382.938 52.697C381.431 52.2145 380.167 51.2976 379.146 49.9464C378.125 48.5469 377.615 46.5201 377.615 43.866L378.636 45.0241C378.101 46.8097 377.226 48.3539 376.011 49.6568C374.796 50.9598 373.191 51.9732 371.198 52.697C369.254 53.3727 366.872 53.7105 364.052 53.7105ZM367.99 44.8794C369.302 44.8794 370.469 44.6139 371.49 44.0831C372.559 43.5523 373.41 42.756 374.042 41.6944C374.674 40.5844 374.99 39.185 374.99 37.496V36.193L368.573 37.7855C367.358 38.0751 366.337 38.5576 365.511 39.2332C364.733 39.8606 364.344 40.681 364.344 41.6944C364.344 42.7078 364.636 43.504 365.219 44.0831C365.802 44.6139 366.726 44.8794 367.99 44.8794Z" stroke="url(#paint21_linear_1_289)" stroke-opacity="0.22" stroke-width="2" mask="url(#path-1-inside-1_1_289)"/>
<path d="M397.157 52.8418V13.7534H409.845L410.428 26.2038L408.678 26.059C408.97 22.7292 409.699 20.1233 410.865 18.2413C412.081 16.311 413.588 14.9357 415.386 14.1153C417.234 13.2949 419.275 12.8847 421.511 12.8847C424.234 12.8847 426.591 13.4638 428.584 14.622C430.626 15.7802 432.206 17.4692 433.324 19.689C434.442 21.8606 435.001 24.5389 435.001 27.7239V52.8418H420.855V32.5737C420.855 30.6917 420.734 29.0992 420.49 27.7962C420.296 26.445 419.859 25.4316 419.178 24.756C418.546 24.0322 417.598 23.6702 416.334 23.6702C414.536 23.6702 413.247 24.4424 412.47 25.9866C411.692 27.5308 411.303 29.7265 411.303 32.5737V52.8418H397.157Z" stroke="white" stroke-opacity="0.05" stroke-width="2" mask="url(#path-1-inside-1_1_289)"/>
<path d="M397.157 52.8418V13.7534H409.845L410.428 26.2038L408.678 26.059C408.97 22.7292 409.699 20.1233 410.865 18.2413C412.081 16.311 413.588 14.9357 415.386 14.1153C417.234 13.2949 419.275 12.8847 421.511 12.8847C424.234 12.8847 426.591 13.4638 428.584 14.622C430.626 15.7802 432.206 17.4692 433.324 19.689C434.442 21.8606 435.001 24.5389 435.001 27.7239V52.8418H420.855V32.5737C420.855 30.6917 420.734 29.0992 420.49 27.7962C420.296 26.445 419.859 25.4316 419.178 24.756C418.546 24.0322 417.598 23.6702 416.334 23.6702C414.536 23.6702 413.247 24.4424 412.47 25.9866C411.692 27.5308 411.303 29.7265 411.303 32.5737V52.8418H397.157Z" stroke="url(#paint22_linear_1_289)" stroke-opacity="0.22" stroke-width="2" mask="url(#path-1-inside-1_1_289)"/>
<path d="M456.234 53.7105C452.977 53.7105 450.157 52.8901 447.775 51.2493C445.442 49.5603 443.619 47.1957 442.307 44.1555C441.043 41.067 440.411 37.4477 440.411 33.2976C440.411 29.1475 441.067 25.5523 442.379 22.5121C443.692 19.4236 445.539 17.059 447.921 15.4182C450.303 13.7292 453.074 12.8847 456.234 12.8847C459.15 12.8847 461.581 13.4638 463.525 14.622C465.47 15.7802 466.953 17.3727 467.973 19.3995V1.44772H482.119V52.8418H468.338L468.119 47.1957C467.05 49.2708 465.47 50.8874 463.38 52.0456C461.338 53.1555 458.956 53.7105 456.234 53.7105ZM461.411 43.6488C462.821 43.6488 464.012 43.2869 464.984 42.563C465.956 41.8391 466.685 40.7292 467.171 39.2332C467.706 37.689 467.973 35.7105 467.973 33.2976C467.973 30.8847 467.706 28.9303 467.171 27.4343C466.685 25.8901 465.956 24.756 464.984 24.0322C464.012 23.3083 462.821 22.9464 461.411 22.9464C459.418 22.9464 457.838 23.8874 456.671 25.7694C455.505 27.6032 454.921 30.1126 454.921 33.2976C454.921 36.3861 455.505 38.8954 456.671 40.8257C457.887 42.7078 459.466 43.6488 461.411 43.6488Z" stroke="white" stroke-opacity="0.05" stroke-width="2" mask="url(#path-1-inside-1_1_289)"/>
<path d="M456.234 53.7105C452.977 53.7105 450.157 52.8901 447.775 51.2493C445.442 49.5603 443.619 47.1957 442.307 44.1555C441.043 41.067 440.411 37.4477 440.411 33.2976C440.411 29.1475 441.067 25.5523 442.379 22.5121C443.692 19.4236 445.539 17.059 447.921 15.4182C450.303 13.7292 453.074 12.8847 456.234 12.8847C459.15 12.8847 461.581 13.4638 463.525 14.622C465.47 15.7802 466.953 17.3727 467.973 19.3995V1.44772H482.119V52.8418H468.338L468.119 47.1957C467.05 49.2708 465.47 50.8874 463.38 52.0456C461.338 53.1555 458.956 53.7105 456.234 53.7105ZM461.411 43.6488C462.821 43.6488 464.012 43.2869 464.984 42.563C465.956 41.8391 466.685 40.7292 467.171 39.2332C467.706 37.689 467.973 35.7105 467.973 33.2976C467.973 30.8847 467.706 28.9303 467.171 27.4343C466.685 25.8901 465.956 24.756 464.984 24.0322C464.012 23.3083 462.821 22.9464 461.411 22.9464C459.418 22.9464 457.838 23.8874 456.671 25.7694C455.505 27.6032 454.921 30.1126 454.921 33.2976C454.921 36.3861 455.505 38.8954 456.671 40.8257C457.887 42.7078 459.466 43.6488 461.411 43.6488Z" stroke="url(#paint23_linear_1_289)" stroke-opacity="0.22" stroke-width="2" mask="url(#path-1-inside-1_1_289)"/>
<path d="M509.127 53.7105C504.85 53.7105 501.106 52.866 497.898 51.1769C494.738 49.4879 492.259 47.1233 490.461 44.0831C488.71 40.9946 487.835 37.3995 487.835 33.2976C487.835 29.1957 488.71 25.6247 490.461 22.5844C492.259 19.5442 494.738 17.1796 497.898 15.4906C501.106 13.7533 504.85 12.8847 509.127 12.8847C513.405 12.8847 517.124 13.7533 520.284 15.4906C523.492 17.1796 525.971 19.5442 527.721 22.5844C529.52 25.6247 530.419 29.1957 530.419 33.2976C530.419 37.3995 529.52 40.9946 527.721 44.0831C525.971 47.1233 523.492 49.4879 520.284 51.1769C517.124 52.866 513.405 53.7105 509.127 53.7105ZM509.127 43.6488C511.315 43.6488 512.992 42.756 514.159 40.9705C515.325 39.185 515.909 36.6273 515.909 33.2976C515.909 30.0161 515.325 27.4826 514.159 25.697C512.992 23.8633 511.315 22.9464 509.127 22.9464C506.94 22.9464 505.263 23.8633 504.096 25.697C502.929 27.4826 502.346 30.0161 502.346 33.2976C502.346 36.6273 502.929 39.185 504.096 40.9705C505.263 42.756 506.94 43.6488 509.127 43.6488Z" stroke="white" stroke-opacity="0.05" stroke-width="2" mask="url(#path-1-inside-1_1_289)"/>
<path d="M509.127 53.7105C504.85 53.7105 501.106 52.866 497.898 51.1769C494.738 49.4879 492.259 47.1233 490.461 44.0831C488.71 40.9946 487.835 37.3995 487.835 33.2976C487.835 29.1957 488.71 25.6247 490.461 22.5844C492.259 19.5442 494.738 17.1796 497.898 15.4906C501.106 13.7533 504.85 12.8847 509.127 12.8847C513.405 12.8847 517.124 13.7533 520.284 15.4906C523.492 17.1796 525.971 19.5442 527.721 22.5844C529.52 25.6247 530.419 29.1957 530.419 33.2976C530.419 37.3995 529.52 40.9946 527.721 44.0831C525.971 47.1233 523.492 49.4879 520.284 51.1769C517.124 52.866 513.405 53.7105 509.127 53.7105ZM509.127 43.6488C511.315 43.6488 512.992 42.756 514.159 40.9705C515.325 39.185 515.909 36.6273 515.909 33.2976C515.909 30.0161 515.325 27.4826 514.159 25.697C512.992 23.8633 511.315 22.9464 509.127 22.9464C506.94 22.9464 505.263 23.8633 504.096 25.697C502.929 27.4826 502.346 30.0161 502.346 33.2976C502.346 36.6273 502.929 39.185 504.096 40.9705C505.263 42.756 506.94 43.6488 509.127 43.6488Z" stroke="url(#paint24_linear_1_289)" stroke-opacity="0.22" stroke-width="2" mask="url(#path-1-inside-1_1_289)"/>
<path d="M536.156 52.8418V13.7534H548.843L549.427 26.2038L547.677 26.059C547.968 22.7292 548.698 20.1233 549.864 18.2413C551.08 16.311 552.587 14.9357 554.385 14.1153C556.232 13.2949 558.274 12.8847 560.51 12.8847C563.232 12.8847 565.59 13.4638 567.583 14.622C569.625 15.7802 571.205 17.4692 572.323 19.689C573.441 21.8606 574 24.5389 574 27.7239V52.8418H559.854V32.5737C559.854 30.6917 559.732 29.0992 559.489 27.7962C559.295 26.445 558.857 25.4316 558.177 24.756C557.545 24.0322 556.597 23.6702 555.333 23.6702C553.534 23.6702 552.246 24.4424 551.469 25.9866C550.691 27.5308 550.302 29.7265 550.302 32.5737V52.8418H536.156Z" stroke="white" stroke-opacity="0.05" stroke-width="2" mask="url(#path-1-inside-1_1_289)"/>
<path d="M536.156 52.8418V13.7534H548.843L549.427 26.2038L547.677 26.059C547.968 22.7292 548.698 20.1233 549.864 18.2413C551.08 16.311 552.587 14.9357 554.385 14.1153C556.232 13.2949 558.274 12.8847 560.51 12.8847C563.232 12.8847 565.59 13.4638 567.583 14.622C569.625 15.7802 571.205 17.4692 572.323 19.689C573.441 21.8606 574 24.5389 574 27.7239V52.8418H559.854V32.5737C559.854 30.6917 559.732 29.0992 559.489 27.7962C559.295 26.445 558.857 25.4316 558.177 24.756C557.545 24.0322 556.597 23.6702 555.333 23.6702C553.534 23.6702 552.246 24.4424 551.469 25.9866C550.691 27.5308 550.302 29.7265 550.302 32.5737V52.8418H536.156Z" stroke="url(#paint25_linear_1_289)" stroke-opacity="0.22" stroke-width="2" mask="url(#path-1-inside-1_1_289)"/>
<defs>
<linearGradient id="paint0_linear_1_289" x1="287" y1="0" x2="287" y2="51" gradientUnits="userSpaceOnUse">
<stop stop-color="white"/>
<stop offset="1" stop-color="white" stop-opacity="0"/>
</linearGradient>
<linearGradient id="paint1_linear_1_289" x1="287" y1="0" x2="287" y2="51" gradientUnits="userSpaceOnUse">
<stop stop-color="white"/>
<stop offset="1" stop-color="white" stop-opacity="0"/>
</linearGradient>
<linearGradient id="paint2_linear_1_289" x1="287" y1="0" x2="287" y2="51" gradientUnits="userSpaceOnUse">
<stop stop-color="white"/>
<stop offset="1" stop-color="white" stop-opacity="0"/>
</linearGradient>
<linearGradient id="paint3_linear_1_289" x1="287" y1="0" x2="287" y2="51" gradientUnits="userSpaceOnUse">
<stop stop-color="white"/>
<stop offset="1" stop-color="white" stop-opacity="0"/>
</linearGradient>
<linearGradient id="paint4_linear_1_289" x1="287" y1="0" x2="287" y2="51" gradientUnits="userSpaceOnUse">
<stop stop-color="white"/>
<stop offset="1" stop-color="white" stop-opacity="0"/>
</linearGradient>
<linearGradient id="paint5_linear_1_289" x1="287" y1="0" x2="287" y2="51" gradientUnits="userSpaceOnUse">
<stop stop-color="white"/>
<stop offset="1" stop-color="white" stop-opacity="0"/>
</linearGradient>
<linearGradient id="paint6_linear_1_289" x1="287" y1="0" x2="287" y2="51" gradientUnits="userSpaceOnUse">
<stop stop-color="white"/>
<stop offset="1" stop-color="white" stop-opacity="0"/>
</linearGradient>
<linearGradient id="paint7_linear_1_289" x1="287" y1="0" x2="287" y2="51" gradientUnits="userSpaceOnUse">
<stop stop-color="white"/>
<stop offset="1" stop-color="white" stop-opacity="0"/>
</linearGradient>
<linearGradient id="paint8_linear_1_289" x1="287" y1="0" x2="287" y2="51" gradientUnits="userSpaceOnUse">
<stop stop-color="white"/>
<stop offset="1" stop-color="white" stop-opacity="0"/>
</linearGradient>
<linearGradient id="paint9_linear_1_289" x1="287" y1="0" x2="287" y2="51" gradientUnits="userSpaceOnUse">
<stop stop-color="white"/>
<stop offset="1" stop-color="white" stop-opacity="0"/>
</linearGradient>
<linearGradient id="paint10_linear_1_289" x1="287" y1="0" x2="287" y2="51" gradientUnits="userSpaceOnUse">
<stop stop-color="white"/>
<stop offset="1" stop-color="white" stop-opacity="0"/>
</linearGradient>
<linearGradient id="paint11_linear_1_289" x1="287" y1="0" x2="287" y2="51" gradientUnits="userSpaceOnUse">
<stop stop-color="white"/>
<stop offset="1" stop-color="white" stop-opacity="0"/>
</linearGradient>
<linearGradient id="paint12_linear_1_289" x1="287" y1="0" x2="287" y2="51" gradientUnits="userSpaceOnUse">
<stop stop-color="white"/>
<stop offset="1" stop-color="white" stop-opacity="0"/>
</linearGradient>
<linearGradient id="paint13_linear_1_289" x1="0" y1="0" x2="3.13176" y2="35.5683" gradientUnits="userSpaceOnUse">
<stop offset="0.313927" stop-color="white"/>
<stop offset="1" stop-color="white" stop-opacity="0"/>
</linearGradient>
<linearGradient id="paint14_linear_1_289" x1="0" y1="0" x2="3.13176" y2="35.5683" gradientUnits="userSpaceOnUse">
<stop offset="0.313927" stop-color="white"/>
<stop offset="1" stop-color="white" stop-opacity="0"/>
</linearGradient>
<linearGradient id="paint15_linear_1_289" x1="0" y1="0" x2="3.13176" y2="35.5683" gradientUnits="userSpaceOnUse">
<stop offset="0.313927" stop-color="white"/>
<stop offset="1" stop-color="white" stop-opacity="0"/>
</linearGradient>
<linearGradient id="paint16_linear_1_289" x1="0" y1="0" x2="3.13176" y2="35.5683" gradientUnits="userSpaceOnUse">
<stop offset="0.313927" stop-color="white"/>
<stop offset="1" stop-color="white" stop-opacity="0"/>
</linearGradient>
<linearGradient id="paint17_linear_1_289" x1="0" y1="0" x2="3.13176" y2="35.5683" gradientUnits="userSpaceOnUse">
<stop offset="0.313927" stop-color="white"/>
<stop offset="1" stop-color="white" stop-opacity="0"/>
</linearGradient>
<linearGradient id="paint18_linear_1_289" x1="0" y1="0" x2="3.13176" y2="35.5683" gradientUnits="userSpaceOnUse">
<stop offset="0.313927" stop-color="white"/>
<stop offset="1" stop-color="white" stop-opacity="0"/>
</linearGradient>
<linearGradient id="paint19_linear_1_289" x1="0" y1="0" x2="3.13176" y2="35.5683" gradientUnits="userSpaceOnUse">
<stop offset="0.313927" stop-color="white"/>
<stop offset="1" stop-color="white" stop-opacity="0"/>
</linearGradient>
<linearGradient id="paint20_linear_1_289" x1="0" y1="0" x2="3.13176" y2="35.5683" gradientUnits="userSpaceOnUse">
<stop offset="0.313927" stop-color="white"/>
<stop offset="1" stop-color="white" stop-opacity="0"/>
</linearGradient>
<linearGradient id="paint21_linear_1_289" x1="0" y1="0" x2="3.13176" y2="35.5683" gradientUnits="userSpaceOnUse">
<stop offset="0.313927" stop-color="white"/>
<stop offset="1" stop-color="white" stop-opacity="0"/>
</linearGradient>
<linearGradient id="paint22_linear_1_289" x1="0" y1="0" x2="3.13176" y2="35.5683" gradientUnits="userSpaceOnUse">
<stop offset="0.313927" stop-color="white"/>
<stop offset="1" stop-color="white" stop-opacity="0"/>
</linearGradient>
<linearGradient id="paint23_linear_1_289" x1="0" y1="0" x2="3.13176" y2="35.5683" gradientUnits="userSpaceOnUse">
<stop offset="0.313927" stop-color="white"/>
<stop offset="1" stop-color="white" stop-opacity="0"/>
</linearGradient>
<linearGradient id="paint24_linear_1_289" x1="0" y1="0" x2="3.13176" y2="35.5683" gradientUnits="userSpaceOnUse">
<stop offset="0.313927" stop-color="white"/>
<stop offset="1" stop-color="white" stop-opacity="0"/>
</linearGradient>
<linearGradient id="paint25_linear_1_289" x1="0" y1="0" x2="3.13176" y2="35.5683" gradientUnits="userSpaceOnUse">
<stop offset="0.313927" stop-color="white"/>
<stop offset="1" stop-color="white" stop-opacity="0"/>
</linearGradient>
</defs>
</svg>
